{"title":"San Andreas(2015)MPEG-4[DaScubaDude]","uid":14721385,"size":1252727498,"categoryP":"video","categoryS":"movies","magnet":"?xt=urn:btih:6e6ca8686ea03f1a6227ed89956d8f1ede89f9e0&amp;dn=San+Andreas%282015%29MPEG-4%5BDaScubaDude%5D&amp;tr=udp%3A%2F%2Ftracker.leechers-paradise.org%3A6969&amp;tr=udp%3A%2F%2Fzer0day.ch%3A1337&amp;tr=udp%3A%2F%2Fopen.demonii.com%3A1337&amp;tr=udp%3A%2F%2Ftracker.coppersurfer.tk%3A6969&amp;tr=udp%3A%2F%2Fexodus.desync.com%3A6969","seeders":1,"leechers":0,"uploader":"dascuba","files":1,"time":1464504807,"description":"San Andreas (2015)\r\nPG-13 | 1h 54min | Action, Adventure, Drama | 29 May 2015 (USA)\r\nIn the aftermath of a massive earthquake in California, a rescue-chopper pilot makes a dangerous journey with his ex-wife across the state in order to rescue his daughter.\r\nDirector: Brad Peyton\r\nWriters: Carlton Cuse (screenplay), Andre Fabrizio (story) | \r\nStars: Dwayne Johnson, Carla Gugino, Alexandra Daddario |\r\n\r\n General\r\nComplete name                            : SanAndreasSAN_ANDREAS_Title1.mp4\r\nFormat                                   : MPEG-4\r\nFormat profile                           : Base Media\r\nCodec ID                                 : isom (isom/iso2/avc1/mp41)\r\nFile size                                : 1.17 GiB\r\nDuration                                 : 1h 54mn\r\nOverall bit rate                         : 1 460 Kbps\r\nMovie name                               : SAN_ANDREAS\r\nGenre                                    : Action\r\nWriting application                      : Lavf54.6.100\r\n\r\nVideo\r\nID                                       : 1\r\nFormat                                   : AVC\r\nFormat/Info                              : Advanced Video Codec\r\nFormat profile                           :   \r\nFormat settings, CABAC                   : No\r\nFormat settings, ReFrames                : 6 frames\r\nCodec ID                                 : avc1\r\nCodec ID/Info                            : Advanced Video Coding\r\nDuration                                 : 1h 54mn\r\nBit rate                                 : 1 197 Kbps\r\nWidth                                    : 720 pixels\r\nHeight                                   : 404 pixels\r\nDisplay aspect ratio                     : 16:9\r\nFrame rate mode                          : Constant\r\nFrame rate                               : 29.970 (30000/1001) fps\r\nColor space                              : YUV\r\nChroma subsampling                       : 4:2:0\r\nBit depth                                : 8 bits\r\nScan type                                : Progressive\r\nBits/(Pixel*Frame)                       : 0.137\r\nStream size                              : 979 MiB (82%)\r\n\r\nAudio\r\nID                                       : 2\r\nFormat                                   : AAC\r\nFormat/Info                              : Advanced Audio Codec\r\nFormat profile                           : LC\r\nCodec ID                                 : 40\r\nDuration                                 : 1h 54mn\r\nBit rate mode                            : Constant\r\nBit rate                                 : 257 Kbps\r\nChannel(s)                               : 2 channels\r\nChannel(s)_Original                      : 6 channels\r\nChannel positions                        : Front: L C R, Side: L R, LFE\r\nSampling rate                            : 44.1 KHz\r\nFrame rate                               : 43.066 fps (1024 spf)\r\nCompression mode                         : Lossy\r\nStream size                              : 210 MiB (18%)\r\nDefault                                  : Yes\r\nAlternate group                          : 1","torrent":{"xt":"urn:btih:6e6ca8686ea03f1a6227ed89956d8f1ede89f9e0","amp;dn":"San+Andreas%282015%29MPEG-4%5BDaScubaDude%5D","amp;tr":["udp%3A%2F%2Ftracker.leechers-paradise.org%3A6969","udp%3A%2F%2Fzer0day.ch%3A1337","udp%3A%2F%2Fopen.demonii.com%3A1337","udp%3A%2F%2Ftracker.coppersurfer.tk%3A6969","udp%3A%2F%2Fexodus.desync.com%3A6969"],"infoHash":"6e6ca8686ea03f1a6227ed89956d8f1ede89f9e0","infoHashBuffer":{"type":"Buffer","data":[110,108,168,104,110,160,63,26,98,39,237,137,149,109,143,30,222,137,249,224]},"announce":[],"urlList":[]}}